<svg width="201" height="31" viewBox="0 0 201 31" fill="none" xmlns="http://www.w3.org/2000/svg">
<path d="M0.00997207 6.09734C0.00943035 4.23552 0.020646 2.42091 0.000150637 0.606647C-0.00480444 0.167716 0.110827 -0.00067199 0.593314 2.0145e-06C9.51479 0.0124755 18.4363 0.0127081 27.3578 0.00194318C27.8298 0.0013739 28.0007 0.11223 28 0.606958C27.9857 10.5156 27.9893 20.4243 27.9885 30.3329C27.9885 30.9822 27.9782 30.9951 27.3092 30.9953C18.4524 30.9981 9.59559 30.9996 0.738762 31C0.019755 31 0.00483648 30.9796 0.00499623 30.2852C0.00684631 22.2383 0.00842684 14.1915 0.00997207 6.09734ZM8.9952 4.66517C8.83093 4.48984 8.61154 4.524 8.40502 4.5234C7.32245 4.52025 6.23987 4.5212 5.15729 4.52065C4.35481 4.52024 4.33091 4.54242 4.33108 5.30664C4.33172 8.1775 4.30505 11.0487 4.34288 13.9191C4.37027 15.9969 4.16757 18.0839 4.5209 20.1516C4.91029 22.4302 5.92054 24.3348 8.0293 25.5516C9.70624 26.5193 11.5659 26.7884 13.4674 26.8966C13.8128 26.9162 13.8664 26.7197 13.8645 26.449C13.8592 25.7392 13.8416 25.0286 13.8702 24.3199C13.8873 23.8947 13.7444 23.7133 13.299 23.6288C11.5668 23.3003 10.212 22.4552 9.50198 20.8055C9.12517 19.9299 9.06227 18.9995 9.06056 18.0675C9.05295 13.919 9.05929 9.77047 9.05324 5.62194C9.0528 5.32543 9.14605 5.0247 8.9952 4.66517ZM20.2939 11.1642C20.2939 15.8518 20.2939 20.5394 20.2939 25.2627C20.4545 25.2209 20.5071 25.2195 20.5441 25.1953C20.6647 25.1164 20.7839 25.0342 20.8962 24.9445C22.6853 23.5147 23.5678 21.6085 23.6372 19.4133C23.7334 16.3714 23.6604 13.3245 23.6714 10.2799C23.6729 9.85999 23.4713 9.71891 23.0795 9.72507C22.6109 9.73243 22.1422 9.72825 21.6736 9.72863C20.1072 9.72989 20.31 9.61006 20.2939 11.1642ZM13.8624 6.80753C13.8623 6.19212 13.8564 5.57665 13.8644 4.96134C13.8681 4.67548 13.776 4.51727 13.4497 4.52136C12.6579 4.53127 11.8657 4.52945 11.0738 4.52098C10.7744 4.51778 10.6821 4.65843 10.6826 4.92866C10.6876 7.67402 10.6915 10.4194 10.6842 13.1647C10.6831 13.6086 10.9012 13.7446 11.316 13.7265C11.9291 13.6998 12.543 13.6912 13.1566 13.6766C13.8192 13.6609 13.8588 13.6273 13.8599 12.9615C13.8632 10.9418 13.8619 8.92198 13.8624 6.80753ZM17.7826 21.0166C18.6651 20.0776 18.7687 18.9294 18.6985 17.7381C18.6799 17.4231 18.4397 17.379 18.1756 17.3792C17.4483 17.3797 16.72 17.3969 15.9939 17.3669C15.5541 17.3487 15.4278 17.5262 15.4436 17.9234C15.47 18.586 15.4614 19.2523 15.2781 19.8971C15.0152 20.8221 14.4533 21.4611 13.4322 21.6097C13.1217 21.6549 12.8054 21.6626 12.4486 21.6909C13.7146 22.6132 16.4803 22.264 17.7826 21.0166ZM17.1441 9.72921C16.7252 9.72897 16.306 9.73861 15.8876 9.72519C15.5864 9.71554 15.4391 9.82204 15.4415 10.1305C15.4498 11.1842 15.4503 12.2379 15.4483 13.2917C15.4477 13.5747 15.5911 13.6842 15.8668 13.6821C16.6561 13.6762 17.4455 13.6725 18.2349 13.6752C18.5639 13.6763 18.7064 13.5057 18.7075 13.2084C18.7114 12.2177 18.711 11.2268 18.706 10.2361C18.7043 9.88996 18.5176 9.72 18.1584 9.72709C17.8525 9.73312 17.5463 9.7289 17.1441 9.72921ZM23.5434 8.09867C23.6214 8.03224 23.6554 7.94515 23.6556 7.84747C23.6576 6.85636 23.6574 5.86525 23.6592 4.87413C23.6597 4.56883 23.4594 4.5205 23.2065 4.52143C22.4007 4.5244 21.5948 4.52859 20.7892 4.51969C20.4437 4.51587 20.287 4.65836 20.2897 4.99748C20.297 5.90993 20.298 6.82247 20.2937 7.73494C20.2923 8.02217 20.3954 8.17479 20.7152 8.16856C21.633 8.15068 22.551 8.14527 23.5434 8.09867ZM18.1615 4.52384C17.4025 4.52336 16.6434 4.52969 15.8846 4.519C15.5841 4.51478 15.4353 4.61522 15.4381 4.9263C15.4467 5.87211 15.4477 6.81806 15.4406 7.76388C15.4382 8.07798 15.5967 8.17339 15.8911 8.17002C16.6662 8.16115 17.4415 8.15639 18.2164 8.16675C18.5652 8.1714 18.7183 8.03179 18.7157 7.69155C18.7086 6.79302 18.7083 5.89437 18.7143 4.99583C18.7164 4.67767 18.562 4.53187 18.1615 4.52384ZM18.1598 22.7295C17.4804 23.2087 16.7222 23.5105 15.898 23.6341C15.5528 23.6858 15.4206 23.8412 15.4435 24.1671C15.4568 24.3553 15.4455 24.5451 15.4454 24.7342C15.4454 25.4219 15.4454 26.1096 15.4454 26.8465C16.5117 26.7863 17.5045 26.6402 18.4597 26.277C18.7155 26.1798 18.7165 25.987 18.7161 25.7764C18.7145 24.831 18.7172 23.8855 18.7136 22.9401C18.713 22.7887 18.7527 22.6198 18.5803 22.4977C18.4339 22.5055 18.3282 22.6073 18.1598 22.7295ZM10.6843 18.2699C10.6941 18.7416 10.6589 19.2152 10.7988 19.6787C11.0427 20.4864 11.4535 20.782 12.3222 20.757C13.0964 20.7348 13.5739 20.3453 13.7457 19.5853C13.8755 19.011 13.8714 18.4273 13.8603 17.8433C13.854 17.5122 13.7009 17.3622 13.3495 17.3708C12.7358 17.3859 12.1215 17.3763 11.5075 17.3754C10.6877 17.3742 10.6877 17.3735 10.6843 18.2699Z" fill="white"/>
<path d="M43.8155 23.884C38.9435 23.884 36.0395 20.092 36.0395 14.908C36.0395 9.748 38.9435 5.956 44.3435 5.956C49.0475 5.956 51.6635 8.74 52.0715 12.028H47.6555C47.3435 10.852 46.6475 9.484 44.2715 9.484C41.4395 9.484 40.4555 11.692 40.4555 14.908C40.4555 18.148 41.4395 20.356 44.4395 20.356C46.4315 20.356 47.8235 19.156 47.8715 17.5H44.6075V14.38H52.3355V23.5H49.2395L48.8075 21.316H48.7595C47.9435 22.876 46.3355 23.884 43.8155 23.884ZM58.863 23.5H54.543V6.34H58.863V23.5ZM65.5783 23.5H61.4983V6.34H66.7783L70.3063 17.284H70.3543L73.8823 6.34H79.1623V23.5H75.0823V12.82H75.0343L71.8423 23.5H68.8183L65.6263 12.82H65.5783V23.5ZM90.045 23.5H85.725V9.868H80.733V6.34H95.013V9.868H90.045V23.5ZM102.934 26.812H100.294V5.404H102.934V26.812ZM110.515 6.796H112.771V16.852C112.771 20.788 114.931 21.868 117.067 21.868C119.563 21.868 121.339 20.716 121.339 16.852V6.796H123.571V16.732C123.571 22.156 120.571 23.716 117.019 23.716C113.539 23.716 110.515 22.036 110.515 16.9V6.796ZM131.245 6.796V18.628C131.245 22.396 129.757 23.74 126.949 23.74C126.277 23.74 125.677 23.668 125.197 23.572V21.724C125.509 21.796 126.205 21.844 126.733 21.844C128.749 21.844 129.013 20.356 129.013 18.7V6.796H131.245ZM141.135 6.796H143.343V23.5H141.135V6.796ZM146.862 23.5V14.404C146.862 13.348 146.862 12.268 146.838 11.332H148.878C148.95 11.692 148.974 12.964 148.974 13.324C149.454 12.292 150.438 11.044 152.79 11.044C155.094 11.044 156.87 12.436 156.87 15.676V23.5H154.758V15.94C154.758 14.092 154.038 12.868 152.19 12.868C149.886 12.868 148.974 14.62 148.974 17.068V23.5H146.862ZM158.493 11.332H160.749C162.381 16.3 163.581 20.02 163.965 21.532H163.989C164.277 20.188 165.573 16.54 167.397 11.332H169.533L165.069 23.5H162.741L158.493 11.332ZM181.136 17.788H172.544C172.568 20.26 173.816 22.036 175.88 22.036C177.8 22.036 178.424 21.028 178.808 20.14H180.944C180.464 21.7 179.144 23.788 175.808 23.788C171.992 23.788 170.432 20.668 170.432 17.548C170.432 13.924 172.256 11.044 175.952 11.044C179.888 11.044 181.16 14.188 181.16 16.78C181.16 17.164 181.16 17.476 181.136 17.788ZM172.616 16.324H179.024C179 14.308 177.992 12.7 175.928 12.7C173.768 12.7 172.832 14.188 172.616 16.324ZM182.726 20.02H184.838C185.174 21.34 186.158 22.132 187.814 22.132C189.59 22.132 190.286 21.364 190.286 20.26C190.286 19.108 189.734 18.58 187.406 18.028C183.926 17.188 183.206 16.108 183.206 14.452C183.206 12.748 184.478 11.044 187.598 11.044C190.742 11.044 192.038 12.868 192.182 14.548H190.166C189.974 13.78 189.374 12.676 187.526 12.676C185.822 12.676 185.294 13.492 185.294 14.284C185.294 15.196 185.798 15.652 188.03 16.18C191.726 17.068 192.47 18.292 192.47 20.092C192.47 22.228 190.766 23.788 187.742 23.788C184.598 23.788 183.038 22.204 182.726 20.02ZM193.256 13.036V11.332H195.368V7.732H197.456V11.332H200.144V13.036H197.456V20.164C197.456 21.364 197.744 21.964 198.848 21.964C199.136 21.964 199.568 21.94 199.904 21.868V23.452C199.4 23.644 198.68 23.668 198.08 23.668C196.184 23.668 195.368 22.684 195.368 20.668V13.036H193.256Z" fill="white"/>
</svg>
